<svg id="Capa_1" enable-background="new 0 0 350.112 350.112" height="512" viewBox="0 0 350.112 350.112" width="512" xmlns="http://www.w3.org/2000/svg"><g><path d="m327.787 67.64c4.485-9.242 3.141-20.673-3.308-28.669-4.582-5.68-10.643-8.982-16.957-10.048-6.386-1.079-11.948-5.58-14.341-11.599-2.362-5.944-6.854-11.174-13.357-14.466-9.167-4.641-20.629-3.566-28.732 2.752-9.012 7.027-12.251 17.675-10.257 27.361 2.771 13.457-.935 27.432-9.573 38.116l-11.262 13.927 36.657 29.64 11.261-13.927c8.641-10.686 21.535-17.228 35.277-17.34 9.88-.081 19.608-5.474 24.592-15.747z" fill="#e1e6e9"/><path d="m327.807 67.649c-5.025 10.268-14.725 15.642-24.599 15.73-13.763.131-26.653 6.641-35.304 17.346l-11.229 13.938-36.659-29.667.044-.044 29.667 23.987 11.273-13.895c8.651-10.705 21.541-17.259 35.26-17.346 9.918-.087 19.618-5.462 24.599-15.773 4.5-9.219 3.146-20.667-3.277-28.662-.306-.35-.568-.699-.918-1.049 2.84 1.66 5.549 3.932 7.821 6.772 6.424 7.996 7.779 19.4 3.322 28.663z" fill="#d5d6db"/><path d="m273.54 105.836c-25.822 31.94-38.887 71.701-40.504 112.728-1.049 26.871-11.578 55.577-31.634 80.308-41.945 51.907-109.538 66.851-150.959 33.382-12.584-10.18-21.322-23.681-26.172-39.018-11.098-34.998-2.01-79.478 27.177-115.612 20.055-24.73 45.878-41.072 71.919-47.713 9.525-2.447 18.875-5.505 27.92-9.219 9.787-4.02 19.269-8.782 28.226-14.244 17.215-10.53 32.683-23.813 45.616-39.761 2.01-2.49 5.68-2.883 8.171-.874l1.092.874 37.139 30.061 1.136.917c2.49 2.011 2.883 5.681.873 8.171z" fill="#dc8744"/><path d="m222.147 70.256c-39.121 44.398-89.255 57.209-98.78 59.656-26.041 6.641-51.864 22.983-71.919 47.713-29.187 36.134-38.275 80.614-27.177 115.612 19.312 22.545 47.188 36.745 78.254 36.745 58.112 0 105.213-49.679 105.213-110.936.001-42.732 47.965-130.264 14.409-148.79z" fill="#ebf0f3" opacity=".1"/><ellipse cx="110.411" cy="226.923" fill="#d5d6db" opacity=".1" rx="64.273" ry="67.783"/><ellipse cx="104.002" cy="210.56" fill="#d5d6db" opacity=".1" rx="28.782" ry="30.354"/><path d="m265.054 7.171c-9.303 0-16.844 7.933-16.844 17.718s7.541 17.717 16.844 17.717 16.844-7.932 16.844-17.717-7.541-17.718-16.844-17.718z" fill="#ebf0f3" opacity=".25"/></g></svg>